<mxfile host="app.diagrams.net" modified="2023-09-12T15:03:18.546Z" agent="Mozilla/5.0 (Windows NT 10.0; Win64; x64; rv:109.0) Gecko/20100101 Firefox/117.0" etag="xwZDhSVcyk_NurhrKEod" version="21.7.2" type="github">
  <diagram name="Page-1" id="XqKPbBKGxglJoeJdR0q-">
    <mxGraphModel dx="1420" dy="704" grid="1" gridSize="10" guides="1" tooltips="1" connect="1" arrows="1" fold="1" page="1" pageScale="1" pageWidth="1600" pageHeight="1200" math="0" shadow="0">
      <root>
        <mxCell id="0" />
        <mxCell id="1" parent="0" />
        <mxCell id="rGUAG8N3f3AiMSVupeu6-3" value="" style="edgeStyle=orthogonalEdgeStyle;rounded=0;orthogonalLoop=1;jettySize=auto;html=1;" edge="1" parent="1" source="rGUAG8N3f3AiMSVupeu6-1" target="rGUAG8N3f3AiMSVupeu6-2">
          <mxGeometry relative="1" as="geometry" />
        </mxCell>
        <mxCell id="rGUAG8N3f3AiMSVupeu6-1" value="pedigree()" style="text;html=1;strokeColor=none;fillColor=none;align=center;verticalAlign=middle;whiteSpace=wrap;rounded=0;" vertex="1" parent="1">
          <mxGeometry x="620" y="360" width="120" height="30" as="geometry" />
        </mxCell>
        <mxCell id="rGUAG8N3f3AiMSVupeu6-2" value="PedigreeClass" style="text;html=1;strokeColor=none;fillColor=none;align=center;verticalAlign=middle;whiteSpace=wrap;rounded=0;" vertex="1" parent="1">
          <mxGeometry x="760" y="360" width="120" height="30" as="geometry" />
        </mxCell>
        <mxCell id="rGUAG8N3f3AiMSVupeu6-12" style="edgeStyle=orthogonalEdgeStyle;rounded=0;orthogonalLoop=1;jettySize=auto;html=1;exitX=1;exitY=0.5;exitDx=0;exitDy=0;entryX=0;entryY=0.25;entryDx=0;entryDy=0;" edge="1" parent="1" source="rGUAG8N3f3AiMSVupeu6-4" target="rGUAG8N3f3AiMSVupeu6-9">
          <mxGeometry relative="1" as="geometry" />
        </mxCell>
        <mxCell id="rGUAG8N3f3AiMSVupeu6-4" value="alignped4()" style="text;html=1;strokeColor=none;fillColor=none;align=center;verticalAlign=middle;whiteSpace=wrap;rounded=0;" vertex="1" parent="1">
          <mxGeometry x="550" y="20" width="60" height="30" as="geometry" />
        </mxCell>
        <mxCell id="rGUAG8N3f3AiMSVupeu6-10" style="edgeStyle=orthogonalEdgeStyle;rounded=0;orthogonalLoop=1;jettySize=auto;html=1;exitX=1;exitY=0.5;exitDx=0;exitDy=0;entryX=0;entryY=0.75;entryDx=0;entryDy=0;" edge="1" parent="1" source="rGUAG8N3f3AiMSVupeu6-5" target="rGUAG8N3f3AiMSVupeu6-9">
          <mxGeometry relative="1" as="geometry" />
        </mxCell>
        <mxCell id="rGUAG8N3f3AiMSVupeu6-14" style="edgeStyle=orthogonalEdgeStyle;rounded=0;orthogonalLoop=1;jettySize=auto;html=1;exitX=1;exitY=0.25;exitDx=0;exitDy=0;entryX=0;entryY=0.75;entryDx=0;entryDy=0;" edge="1" parent="1" source="rGUAG8N3f3AiMSVupeu6-5" target="rGUAG8N3f3AiMSVupeu6-7">
          <mxGeometry relative="1" as="geometry" />
        </mxCell>
        <mxCell id="rGUAG8N3f3AiMSVupeu6-5" value="alignped3()" style="text;html=1;strokeColor=none;fillColor=none;align=center;verticalAlign=middle;whiteSpace=wrap;rounded=0;" vertex="1" parent="1">
          <mxGeometry x="550" y="130" width="60" height="30" as="geometry" />
        </mxCell>
        <mxCell id="rGUAG8N3f3AiMSVupeu6-13" style="edgeStyle=orthogonalEdgeStyle;rounded=0;orthogonalLoop=1;jettySize=auto;html=1;exitX=1;exitY=0.5;exitDx=0;exitDy=0;entryX=0;entryY=0.5;entryDx=0;entryDy=0;" edge="1" parent="1" source="rGUAG8N3f3AiMSVupeu6-6" target="rGUAG8N3f3AiMSVupeu6-7">
          <mxGeometry relative="1" as="geometry" />
        </mxCell>
        <mxCell id="rGUAG8N3f3AiMSVupeu6-6" value="alignped2()" style="text;html=1;strokeColor=none;fillColor=none;align=center;verticalAlign=middle;whiteSpace=wrap;rounded=0;" vertex="1" parent="1">
          <mxGeometry x="450" y="50" width="60" height="30" as="geometry" />
        </mxCell>
        <mxCell id="rGUAG8N3f3AiMSVupeu6-11" style="edgeStyle=orthogonalEdgeStyle;rounded=0;orthogonalLoop=1;jettySize=auto;html=1;exitX=1;exitY=0.5;exitDx=0;exitDy=0;entryX=0;entryY=0.5;entryDx=0;entryDy=0;" edge="1" parent="1" source="rGUAG8N3f3AiMSVupeu6-7" target="rGUAG8N3f3AiMSVupeu6-9">
          <mxGeometry relative="1" as="geometry" />
        </mxCell>
        <mxCell id="rGUAG8N3f3AiMSVupeu6-7" value="alignped1()" style="text;html=1;strokeColor=none;fillColor=none;align=center;verticalAlign=middle;whiteSpace=wrap;rounded=0;" vertex="1" parent="1">
          <mxGeometry x="550" y="50" width="60" height="30" as="geometry" />
        </mxCell>
        <mxCell id="rGUAG8N3f3AiMSVupeu6-20" style="edgeStyle=orthogonalEdgeStyle;rounded=0;orthogonalLoop=1;jettySize=auto;html=1;exitX=1;exitY=0.5;exitDx=0;exitDy=0;entryX=0;entryY=0.75;entryDx=0;entryDy=0;" edge="1" parent="1" source="rGUAG8N3f3AiMSVupeu6-9" target="rGUAG8N3f3AiMSVupeu6-17">
          <mxGeometry relative="1" as="geometry" />
        </mxCell>
        <mxCell id="rGUAG8N3f3AiMSVupeu6-22" style="edgeStyle=orthogonalEdgeStyle;rounded=0;orthogonalLoop=1;jettySize=auto;html=1;exitX=1;exitY=0.75;exitDx=0;exitDy=0;entryX=0;entryY=0.75;entryDx=0;entryDy=0;" edge="1" parent="1" source="rGUAG8N3f3AiMSVupeu6-9" target="rGUAG8N3f3AiMSVupeu6-18">
          <mxGeometry relative="1" as="geometry" />
        </mxCell>
        <mxCell id="rGUAG8N3f3AiMSVupeu6-25" style="edgeStyle=orthogonalEdgeStyle;rounded=0;orthogonalLoop=1;jettySize=auto;html=1;exitX=1;exitY=1;exitDx=0;exitDy=0;entryX=0;entryY=0.25;entryDx=0;entryDy=0;" edge="1" parent="1" source="rGUAG8N3f3AiMSVupeu6-9" target="rGUAG8N3f3AiMSVupeu6-24">
          <mxGeometry relative="1" as="geometry" />
        </mxCell>
        <mxCell id="rGUAG8N3f3AiMSVupeu6-70" style="edgeStyle=orthogonalEdgeStyle;rounded=0;orthogonalLoop=1;jettySize=auto;html=1;exitX=1;exitY=0;exitDx=0;exitDy=0;entryX=0;entryY=0.5;entryDx=0;entryDy=0;" edge="1" parent="1" source="rGUAG8N3f3AiMSVupeu6-9" target="rGUAG8N3f3AiMSVupeu6-66">
          <mxGeometry relative="1" as="geometry" />
        </mxCell>
        <mxCell id="rGUAG8N3f3AiMSVupeu6-9" value="align()" style="text;html=1;strokeColor=none;fillColor=none;align=center;verticalAlign=middle;whiteSpace=wrap;rounded=0;" vertex="1" parent="1">
          <mxGeometry x="660" y="50" width="60" height="30" as="geometry" />
        </mxCell>
        <mxCell id="rGUAG8N3f3AiMSVupeu6-64" style="edgeStyle=orthogonalEdgeStyle;rounded=0;orthogonalLoop=1;jettySize=auto;html=1;exitX=1;exitY=0.25;exitDx=0;exitDy=0;entryX=0;entryY=0.75;entryDx=0;entryDy=0;" edge="1" parent="1" source="rGUAG8N3f3AiMSVupeu6-15" target="rGUAG8N3f3AiMSVupeu6-61">
          <mxGeometry relative="1" as="geometry" />
        </mxCell>
        <mxCell id="rGUAG8N3f3AiMSVupeu6-104" style="edgeStyle=orthogonalEdgeStyle;rounded=0;orthogonalLoop=1;jettySize=auto;html=1;exitX=1;exitY=0.5;exitDx=0;exitDy=0;entryX=0;entryY=0.5;entryDx=0;entryDy=0;" edge="1" parent="1" source="rGUAG8N3f3AiMSVupeu6-15" target="rGUAG8N3f3AiMSVupeu6-100">
          <mxGeometry relative="1" as="geometry" />
        </mxCell>
        <mxCell id="rGUAG8N3f3AiMSVupeu6-15" value="kinship()" style="text;html=1;strokeColor=none;fillColor=none;align=center;verticalAlign=middle;whiteSpace=wrap;rounded=0;" vertex="1" parent="1">
          <mxGeometry x="610" y="540" width="60" height="30" as="geometry" />
        </mxCell>
        <mxCell id="rGUAG8N3f3AiMSVupeu6-19" style="edgeStyle=orthogonalEdgeStyle;rounded=0;orthogonalLoop=1;jettySize=auto;html=1;exitX=1;exitY=0.5;exitDx=0;exitDy=0;entryX=0;entryY=0.5;entryDx=0;entryDy=0;" edge="1" parent="1" source="rGUAG8N3f3AiMSVupeu6-16" target="rGUAG8N3f3AiMSVupeu6-17">
          <mxGeometry relative="1" as="geometry" />
        </mxCell>
        <mxCell id="rGUAG8N3f3AiMSVupeu6-16" value="kindepth()" style="text;html=1;strokeColor=none;fillColor=none;align=center;verticalAlign=middle;whiteSpace=wrap;rounded=0;" vertex="1" parent="1">
          <mxGeometry x="710" width="60" height="30" as="geometry" />
        </mxCell>
        <mxCell id="rGUAG8N3f3AiMSVupeu6-21" style="edgeStyle=orthogonalEdgeStyle;rounded=0;orthogonalLoop=1;jettySize=auto;html=1;exitX=1;exitY=0.5;exitDx=0;exitDy=0;entryX=0;entryY=0.5;entryDx=0;entryDy=0;" edge="1" parent="1" source="rGUAG8N3f3AiMSVupeu6-17" target="rGUAG8N3f3AiMSVupeu6-18">
          <mxGeometry relative="1" as="geometry" />
        </mxCell>
        <mxCell id="rGUAG8N3f3AiMSVupeu6-27" style="edgeStyle=orthogonalEdgeStyle;rounded=0;orthogonalLoop=1;jettySize=auto;html=1;exitX=1;exitY=0.25;exitDx=0;exitDy=0;entryX=0.25;entryY=0;entryDx=0;entryDy=0;" edge="1" parent="1" source="rGUAG8N3f3AiMSVupeu6-17" target="rGUAG8N3f3AiMSVupeu6-24">
          <mxGeometry relative="1" as="geometry">
            <Array as="points">
              <mxPoint x="1080" y="7" />
              <mxPoint x="1080" y="170" />
            </Array>
          </mxGeometry>
        </mxCell>
        <mxCell id="rGUAG8N3f3AiMSVupeu6-17" value="auto_hint()" style="text;html=1;strokeColor=none;fillColor=none;align=center;verticalAlign=middle;whiteSpace=wrap;rounded=0;" vertex="1" parent="1">
          <mxGeometry x="820" width="60" height="30" as="geometry" />
        </mxCell>
        <mxCell id="rGUAG8N3f3AiMSVupeu6-26" style="edgeStyle=orthogonalEdgeStyle;rounded=0;orthogonalLoop=1;jettySize=auto;html=1;exitX=1;exitY=0.75;exitDx=0;exitDy=0;entryX=0;entryY=0;entryDx=0;entryDy=0;" edge="1" parent="1" source="rGUAG8N3f3AiMSVupeu6-18" target="rGUAG8N3f3AiMSVupeu6-24">
          <mxGeometry relative="1" as="geometry" />
        </mxCell>
        <mxCell id="rGUAG8N3f3AiMSVupeu6-18" value="best_hint()" style="text;html=1;strokeColor=none;fillColor=none;align=center;verticalAlign=middle;whiteSpace=wrap;rounded=0;" vertex="1" parent="1">
          <mxGeometry x="920" y="70" width="60" height="30" as="geometry" />
        </mxCell>
        <mxCell id="rGUAG8N3f3AiMSVupeu6-43" style="edgeStyle=orthogonalEdgeStyle;rounded=0;orthogonalLoop=1;jettySize=auto;html=1;exitX=1;exitY=0.5;exitDx=0;exitDy=0;entryX=0;entryY=0.25;entryDx=0;entryDy=0;" edge="1" parent="1" source="rGUAG8N3f3AiMSVupeu6-23" target="rGUAG8N3f3AiMSVupeu6-38">
          <mxGeometry relative="1" as="geometry" />
        </mxCell>
        <mxCell id="rGUAG8N3f3AiMSVupeu6-95" style="edgeStyle=orthogonalEdgeStyle;rounded=0;orthogonalLoop=1;jettySize=auto;html=1;exitX=1;exitY=0.25;exitDx=0;exitDy=0;entryX=0;entryY=0.25;entryDx=0;entryDy=0;" edge="1" parent="1" source="rGUAG8N3f3AiMSVupeu6-23" target="rGUAG8N3f3AiMSVupeu6-94">
          <mxGeometry relative="1" as="geometry" />
        </mxCell>
        <mxCell id="rGUAG8N3f3AiMSVupeu6-23" value="&lt;div&gt;bit_size()&lt;/div&gt;" style="text;html=1;strokeColor=none;fillColor=none;align=center;verticalAlign=middle;whiteSpace=wrap;rounded=0;" vertex="1" parent="1">
          <mxGeometry x="500" y="190" width="60" height="30" as="geometry" />
        </mxCell>
        <mxCell id="rGUAG8N3f3AiMSVupeu6-24" value="&lt;div&gt;check_hints()&lt;/div&gt;" style="text;html=1;strokeColor=none;fillColor=none;align=center;verticalAlign=middle;whiteSpace=wrap;rounded=0;" vertex="1" parent="1">
          <mxGeometry x="1060" y="170" width="60" height="30" as="geometry" />
        </mxCell>
        <mxCell id="rGUAG8N3f3AiMSVupeu6-28" value="descendants()" style="text;html=1;strokeColor=none;fillColor=none;align=center;verticalAlign=middle;whiteSpace=wrap;rounded=0;" vertex="1" parent="1">
          <mxGeometry x="710" y="200" width="60" height="30" as="geometry" />
        </mxCell>
        <mxCell id="rGUAG8N3f3AiMSVupeu6-35" value="" style="edgeStyle=orthogonalEdgeStyle;rounded=0;orthogonalLoop=1;jettySize=auto;html=1;" edge="1" parent="1" source="rGUAG8N3f3AiMSVupeu6-29" target="rGUAG8N3f3AiMSVupeu6-30">
          <mxGeometry relative="1" as="geometry" />
        </mxCell>
        <mxCell id="rGUAG8N3f3AiMSVupeu6-29" value="make_famid()" style="text;html=1;strokeColor=none;fillColor=none;align=center;verticalAlign=middle;whiteSpace=wrap;rounded=0;" vertex="1" parent="1">
          <mxGeometry x="250" y="430" width="90" height="30" as="geometry" />
        </mxCell>
        <mxCell id="rGUAG8N3f3AiMSVupeu6-30" value="&lt;div&gt;family_check()&lt;/div&gt;" style="text;html=1;strokeColor=none;fillColor=none;align=center;verticalAlign=middle;whiteSpace=wrap;rounded=0;" vertex="1" parent="1">
          <mxGeometry x="390" y="430" width="90" height="30" as="geometry" />
        </mxCell>
        <mxCell id="rGUAG8N3f3AiMSVupeu6-34" style="edgeStyle=orthogonalEdgeStyle;rounded=0;orthogonalLoop=1;jettySize=auto;html=1;exitX=1;exitY=0.5;exitDx=0;exitDy=0;entryX=0;entryY=0.5;entryDx=0;entryDy=0;" edge="1" parent="1" source="rGUAG8N3f3AiMSVupeu6-31" target="rGUAG8N3f3AiMSVupeu6-1">
          <mxGeometry relative="1" as="geometry" />
        </mxCell>
        <mxCell id="rGUAG8N3f3AiMSVupeu6-31" value="norm_ped()" style="text;html=1;strokeColor=none;fillColor=none;align=center;verticalAlign=middle;whiteSpace=wrap;rounded=0;" vertex="1" parent="1">
          <mxGeometry x="420" y="350" width="60" height="30" as="geometry" />
        </mxCell>
        <mxCell id="rGUAG8N3f3AiMSVupeu6-33" style="edgeStyle=orthogonalEdgeStyle;rounded=0;orthogonalLoop=1;jettySize=auto;html=1;exitX=1;exitY=0.5;exitDx=0;exitDy=0;entryX=0;entryY=0.25;entryDx=0;entryDy=0;" edge="1" parent="1" source="rGUAG8N3f3AiMSVupeu6-32" target="rGUAG8N3f3AiMSVupeu6-1">
          <mxGeometry relative="1" as="geometry" />
        </mxCell>
        <mxCell id="rGUAG8N3f3AiMSVupeu6-32" value="norm_rel()" style="text;html=1;strokeColor=none;fillColor=none;align=center;verticalAlign=middle;whiteSpace=wrap;rounded=0;" vertex="1" parent="1">
          <mxGeometry x="420" y="320" width="60" height="30" as="geometry" />
        </mxCell>
        <mxCell id="rGUAG8N3f3AiMSVupeu6-99" style="edgeStyle=orthogonalEdgeStyle;rounded=0;orthogonalLoop=1;jettySize=auto;html=1;exitX=1;exitY=0.25;exitDx=0;exitDy=0;entryX=0;entryY=0.25;entryDx=0;entryDy=0;" edge="1" parent="1" source="rGUAG8N3f3AiMSVupeu6-38" target="rGUAG8N3f3AiMSVupeu6-94">
          <mxGeometry relative="1" as="geometry" />
        </mxCell>
        <mxCell id="rGUAG8N3f3AiMSVupeu6-38" value="&lt;div&gt;find_avail_affected()&lt;/div&gt;" style="text;html=1;strokeColor=none;fillColor=none;align=center;verticalAlign=middle;whiteSpace=wrap;rounded=0;" vertex="1" parent="1">
          <mxGeometry x="650" y="260" width="140" height="30" as="geometry" />
        </mxCell>
        <mxCell id="rGUAG8N3f3AiMSVupeu6-40" value="" style="edgeStyle=orthogonalEdgeStyle;rounded=0;orthogonalLoop=1;jettySize=auto;html=1;entryX=0;entryY=0.75;entryDx=0;entryDy=0;" edge="1" parent="1" source="rGUAG8N3f3AiMSVupeu6-39" target="rGUAG8N3f3AiMSVupeu6-38">
          <mxGeometry relative="1" as="geometry" />
        </mxCell>
        <mxCell id="rGUAG8N3f3AiMSVupeu6-96" style="edgeStyle=orthogonalEdgeStyle;rounded=0;orthogonalLoop=1;jettySize=auto;html=1;exitX=1;exitY=0.25;exitDx=0;exitDy=0;entryX=0;entryY=0.75;entryDx=0;entryDy=0;" edge="1" parent="1" source="rGUAG8N3f3AiMSVupeu6-39" target="rGUAG8N3f3AiMSVupeu6-94">
          <mxGeometry relative="1" as="geometry" />
        </mxCell>
        <mxCell id="rGUAG8N3f3AiMSVupeu6-39" value="trim()" style="text;html=1;strokeColor=none;fillColor=none;align=center;verticalAlign=middle;whiteSpace=wrap;rounded=0;" vertex="1" parent="1">
          <mxGeometry x="530" y="260" width="60" height="30" as="geometry" />
        </mxCell>
        <mxCell id="rGUAG8N3f3AiMSVupeu6-42" value="" style="edgeStyle=orthogonalEdgeStyle;rounded=0;orthogonalLoop=1;jettySize=auto;html=1;" edge="1" parent="1" source="rGUAG8N3f3AiMSVupeu6-41" target="rGUAG8N3f3AiMSVupeu6-38">
          <mxGeometry relative="1" as="geometry" />
        </mxCell>
        <mxCell id="rGUAG8N3f3AiMSVupeu6-45" style="edgeStyle=orthogonalEdgeStyle;rounded=0;orthogonalLoop=1;jettySize=auto;html=1;exitX=1;exitY=0.75;exitDx=0;exitDy=0;entryX=0;entryY=0.5;entryDx=0;entryDy=0;" edge="1" parent="1" source="rGUAG8N3f3AiMSVupeu6-41" target="rGUAG8N3f3AiMSVupeu6-44">
          <mxGeometry relative="1" as="geometry" />
        </mxCell>
        <mxCell id="rGUAG8N3f3AiMSVupeu6-97" style="edgeStyle=orthogonalEdgeStyle;rounded=0;orthogonalLoop=1;jettySize=auto;html=1;exitX=1;exitY=0.25;exitDx=0;exitDy=0;entryX=0;entryY=0.25;entryDx=0;entryDy=0;" edge="1" parent="1" source="rGUAG8N3f3AiMSVupeu6-41" target="rGUAG8N3f3AiMSVupeu6-94">
          <mxGeometry relative="1" as="geometry" />
        </mxCell>
        <mxCell id="rGUAG8N3f3AiMSVupeu6-41" value="find_unavailable()" style="text;html=1;strokeColor=none;fillColor=none;align=center;verticalAlign=middle;whiteSpace=wrap;rounded=0;" vertex="1" parent="1">
          <mxGeometry x="490" y="290" width="120" height="30" as="geometry" />
        </mxCell>
        <mxCell id="rGUAG8N3f3AiMSVupeu6-98" style="edgeStyle=orthogonalEdgeStyle;rounded=0;orthogonalLoop=1;jettySize=auto;html=1;exitX=1;exitY=0.25;exitDx=0;exitDy=0;entryX=0;entryY=0.75;entryDx=0;entryDy=0;" edge="1" parent="1" source="rGUAG8N3f3AiMSVupeu6-44" target="rGUAG8N3f3AiMSVupeu6-94">
          <mxGeometry relative="1" as="geometry" />
        </mxCell>
        <mxCell id="rGUAG8N3f3AiMSVupeu6-44" value="&lt;div&gt;find_avail_noninform()&lt;/div&gt;" style="text;html=1;strokeColor=none;fillColor=none;align=center;verticalAlign=middle;whiteSpace=wrap;rounded=0;" vertex="1" parent="1">
          <mxGeometry x="650" y="300" width="140" height="30" as="geometry" />
        </mxCell>
        <mxCell id="rGUAG8N3f3AiMSVupeu6-49" value="" style="edgeStyle=orthogonalEdgeStyle;rounded=0;orthogonalLoop=1;jettySize=auto;html=1;" edge="1" parent="1" source="rGUAG8N3f3AiMSVupeu6-46" target="rGUAG8N3f3AiMSVupeu6-41">
          <mxGeometry relative="1" as="geometry" />
        </mxCell>
        <mxCell id="rGUAG8N3f3AiMSVupeu6-46" value="exclude_unavail_founders()" style="text;html=1;strokeColor=none;fillColor=none;align=center;verticalAlign=middle;whiteSpace=wrap;rounded=0;" vertex="1" parent="1">
          <mxGeometry x="260" y="280" width="160" height="30" as="geometry" />
        </mxCell>
        <mxCell id="rGUAG8N3f3AiMSVupeu6-48" value="" style="edgeStyle=orthogonalEdgeStyle;rounded=0;orthogonalLoop=1;jettySize=auto;html=1;" edge="1" parent="1" source="rGUAG8N3f3AiMSVupeu6-47" target="rGUAG8N3f3AiMSVupeu6-41">
          <mxGeometry relative="1" as="geometry" />
        </mxCell>
        <mxCell id="rGUAG8N3f3AiMSVupeu6-47" value="&lt;div&gt;exclude_stray_marryin()&lt;/div&gt;" style="text;html=1;strokeColor=none;fillColor=none;align=center;verticalAlign=middle;whiteSpace=wrap;rounded=0;" vertex="1" parent="1">
          <mxGeometry x="270" y="250" width="150" height="30" as="geometry" />
        </mxCell>
        <mxCell id="rGUAG8N3f3AiMSVupeu6-51" value="" style="edgeStyle=orthogonalEdgeStyle;rounded=0;orthogonalLoop=1;jettySize=auto;html=1;entryX=0;entryY=0.5;entryDx=0;entryDy=0;" edge="1" parent="1" source="rGUAG8N3f3AiMSVupeu6-50" target="rGUAG8N3f3AiMSVupeu6-31">
          <mxGeometry relative="1" as="geometry" />
        </mxCell>
        <mxCell id="rGUAG8N3f3AiMSVupeu6-50" value="fix_parents()" style="text;html=1;strokeColor=none;fillColor=none;align=center;verticalAlign=middle;whiteSpace=wrap;rounded=0;" vertex="1" parent="1">
          <mxGeometry x="250" y="350" width="90" height="30" as="geometry" />
        </mxCell>
        <mxCell id="rGUAG8N3f3AiMSVupeu6-59" value="" style="edgeStyle=orthogonalEdgeStyle;rounded=0;orthogonalLoop=1;jettySize=auto;html=1;" edge="1" parent="1" source="rGUAG8N3f3AiMSVupeu6-53" target="rGUAG8N3f3AiMSVupeu6-55">
          <mxGeometry relative="1" as="geometry" />
        </mxCell>
        <mxCell id="rGUAG8N3f3AiMSVupeu6-53" value="generate_aff_inds()" style="text;html=1;strokeColor=none;fillColor=none;align=center;verticalAlign=middle;whiteSpace=wrap;rounded=0;" vertex="1" parent="1">
          <mxGeometry x="25" y="470" width="110" height="30" as="geometry" />
        </mxCell>
        <mxCell id="rGUAG8N3f3AiMSVupeu6-58" value="" style="edgeStyle=orthogonalEdgeStyle;rounded=0;orthogonalLoop=1;jettySize=auto;html=1;entryX=0;entryY=0.75;entryDx=0;entryDy=0;" edge="1" parent="1" source="rGUAG8N3f3AiMSVupeu6-54" target="rGUAG8N3f3AiMSVupeu6-56">
          <mxGeometry relative="1" as="geometry" />
        </mxCell>
        <mxCell id="rGUAG8N3f3AiMSVupeu6-54" value="generate_border()" style="text;html=1;strokeColor=none;fillColor=none;align=center;verticalAlign=middle;whiteSpace=wrap;rounded=0;" vertex="1" parent="1">
          <mxGeometry x="155" y="510" width="110" height="30" as="geometry" />
        </mxCell>
        <mxCell id="rGUAG8N3f3AiMSVupeu6-57" value="" style="edgeStyle=orthogonalEdgeStyle;rounded=0;orthogonalLoop=1;jettySize=auto;html=1;" edge="1" parent="1" source="rGUAG8N3f3AiMSVupeu6-55" target="rGUAG8N3f3AiMSVupeu6-56">
          <mxGeometry relative="1" as="geometry" />
        </mxCell>
        <mxCell id="rGUAG8N3f3AiMSVupeu6-55" value="generate_fill()" style="text;html=1;strokeColor=none;fillColor=none;align=center;verticalAlign=middle;whiteSpace=wrap;rounded=0;" vertex="1" parent="1">
          <mxGeometry x="205" y="470" width="110" height="30" as="geometry" />
        </mxCell>
        <mxCell id="rGUAG8N3f3AiMSVupeu6-81" style="edgeStyle=orthogonalEdgeStyle;rounded=0;orthogonalLoop=1;jettySize=auto;html=1;exitX=1;exitY=0.25;exitDx=0;exitDy=0;entryX=0;entryY=0.75;entryDx=0;entryDy=0;" edge="1" parent="1" source="rGUAG8N3f3AiMSVupeu6-56" target="rGUAG8N3f3AiMSVupeu6-1">
          <mxGeometry relative="1" as="geometry" />
        </mxCell>
        <mxCell id="rGUAG8N3f3AiMSVupeu6-56" value="generate_color()" style="text;html=1;strokeColor=none;fillColor=none;align=center;verticalAlign=middle;whiteSpace=wrap;rounded=0;" vertex="1" parent="1">
          <mxGeometry x="400" y="500" width="110" height="30" as="geometry" />
        </mxCell>
        <mxCell id="rGUAG8N3f3AiMSVupeu6-63" value="" style="edgeStyle=orthogonalEdgeStyle;rounded=0;orthogonalLoop=1;jettySize=auto;html=1;entryX=0;entryY=0.25;entryDx=0;entryDy=0;" edge="1" parent="1" source="rGUAG8N3f3AiMSVupeu6-60" target="rGUAG8N3f3AiMSVupeu6-61">
          <mxGeometry relative="1" as="geometry" />
        </mxCell>
        <mxCell id="rGUAG8N3f3AiMSVupeu6-102" style="edgeStyle=orthogonalEdgeStyle;rounded=0;orthogonalLoop=1;jettySize=auto;html=1;exitX=1;exitY=0.25;exitDx=0;exitDy=0;entryX=0;entryY=0.5;entryDx=0;entryDy=0;" edge="1" parent="1" source="rGUAG8N3f3AiMSVupeu6-60" target="rGUAG8N3f3AiMSVupeu6-101">
          <mxGeometry relative="1" as="geometry" />
        </mxCell>
        <mxCell id="rGUAG8N3f3AiMSVupeu6-60" value="is_informative()" style="text;html=1;strokeColor=none;fillColor=none;align=center;verticalAlign=middle;whiteSpace=wrap;rounded=0;" vertex="1" parent="1">
          <mxGeometry x="580" y="500" width="120" height="30" as="geometry" />
        </mxCell>
        <mxCell id="rGUAG8N3f3AiMSVupeu6-61" value="max_kin_inf()" style="text;html=1;strokeColor=none;fillColor=none;align=center;verticalAlign=middle;whiteSpace=wrap;rounded=0;" vertex="1" parent="1">
          <mxGeometry x="780" y="500" width="100" height="30" as="geometry" />
        </mxCell>
        <mxCell id="rGUAG8N3f3AiMSVupeu6-103" style="edgeStyle=orthogonalEdgeStyle;rounded=0;orthogonalLoop=1;jettySize=auto;html=1;exitX=1;exitY=0.25;exitDx=0;exitDy=0;entryX=0;entryY=0.25;entryDx=0;entryDy=0;" edge="1" parent="1" source="rGUAG8N3f3AiMSVupeu6-62" target="rGUAG8N3f3AiMSVupeu6-101">
          <mxGeometry relative="1" as="geometry" />
        </mxCell>
        <mxCell id="rGUAG8N3f3AiMSVupeu6-62" value="num_child()" style="text;html=1;strokeColor=none;fillColor=none;align=center;verticalAlign=middle;whiteSpace=wrap;rounded=0;" vertex="1" parent="1">
          <mxGeometry x="600" y="410" width="60" height="30" as="geometry" />
        </mxCell>
        <mxCell id="rGUAG8N3f3AiMSVupeu6-93" style="edgeStyle=orthogonalEdgeStyle;rounded=0;orthogonalLoop=1;jettySize=auto;html=1;exitX=0.75;exitY=1;exitDx=0;exitDy=0;entryX=0;entryY=0;entryDx=0;entryDy=0;" edge="1" parent="1" source="rGUAG8N3f3AiMSVupeu6-65" target="rGUAG8N3f3AiMSVupeu6-90">
          <mxGeometry relative="1" as="geometry" />
        </mxCell>
        <mxCell id="rGUAG8N3f3AiMSVupeu6-65" value="ped_to_legdf()" style="text;html=1;strokeColor=none;fillColor=none;align=center;verticalAlign=middle;whiteSpace=wrap;rounded=0;" vertex="1" parent="1">
          <mxGeometry x="870" y="310" width="130" height="30" as="geometry" />
        </mxCell>
        <mxCell id="rGUAG8N3f3AiMSVupeu6-91" style="edgeStyle=orthogonalEdgeStyle;rounded=0;orthogonalLoop=1;jettySize=auto;html=1;exitX=1;exitY=0.5;exitDx=0;exitDy=0;entryX=0.25;entryY=0;entryDx=0;entryDy=0;" edge="1" parent="1" source="rGUAG8N3f3AiMSVupeu6-66" target="rGUAG8N3f3AiMSVupeu6-90">
          <mxGeometry relative="1" as="geometry" />
        </mxCell>
        <mxCell id="rGUAG8N3f3AiMSVupeu6-66" value="ped_to_plotdf()" style="text;html=1;strokeColor=none;fillColor=none;align=center;verticalAlign=middle;whiteSpace=wrap;rounded=0;" vertex="1" parent="1">
          <mxGeometry x="930" y="390" width="100" height="30" as="geometry" />
        </mxCell>
        <mxCell id="rGUAG8N3f3AiMSVupeu6-92" style="edgeStyle=orthogonalEdgeStyle;rounded=0;orthogonalLoop=1;jettySize=auto;html=1;exitX=0.75;exitY=1;exitDx=0;exitDy=0;entryX=0.5;entryY=0;entryDx=0;entryDy=0;" edge="1" parent="1" source="rGUAG8N3f3AiMSVupeu6-67" target="rGUAG8N3f3AiMSVupeu6-90">
          <mxGeometry relative="1" as="geometry" />
        </mxCell>
        <mxCell id="rGUAG8N3f3AiMSVupeu6-67" value="plot_fromdf()" style="text;html=1;strokeColor=none;fillColor=none;align=center;verticalAlign=middle;whiteSpace=wrap;rounded=0;" vertex="1" parent="1">
          <mxGeometry x="1100" y="340" width="100" height="30" as="geometry" />
        </mxCell>
        <mxCell id="rGUAG8N3f3AiMSVupeu6-80" style="edgeStyle=orthogonalEdgeStyle;rounded=0;orthogonalLoop=1;jettySize=auto;html=1;exitX=0.75;exitY=1;exitDx=0;exitDy=0;entryX=0;entryY=0;entryDx=0;entryDy=0;" edge="1" parent="1" source="rGUAG8N3f3AiMSVupeu6-71" target="rGUAG8N3f3AiMSVupeu6-67">
          <mxGeometry relative="1" as="geometry" />
        </mxCell>
        <mxCell id="rGUAG8N3f3AiMSVupeu6-71" value="draw_arc()" style="text;html=1;strokeColor=none;fillColor=none;align=center;verticalAlign=middle;whiteSpace=wrap;rounded=0;" vertex="1" parent="1">
          <mxGeometry x="1000" y="230" width="60" height="30" as="geometry" />
        </mxCell>
        <mxCell id="rGUAG8N3f3AiMSVupeu6-79" style="edgeStyle=orthogonalEdgeStyle;rounded=0;orthogonalLoop=1;jettySize=auto;html=1;exitX=0.75;exitY=1;exitDx=0;exitDy=0;entryX=0.25;entryY=0;entryDx=0;entryDy=0;" edge="1" parent="1" source="rGUAG8N3f3AiMSVupeu6-72" target="rGUAG8N3f3AiMSVupeu6-67">
          <mxGeometry relative="1" as="geometry" />
        </mxCell>
        <mxCell id="rGUAG8N3f3AiMSVupeu6-72" value="draw_segment()" style="text;html=1;strokeColor=none;fillColor=none;align=center;verticalAlign=middle;whiteSpace=wrap;rounded=0;" vertex="1" parent="1">
          <mxGeometry x="1090" y="220" width="60" height="30" as="geometry" />
        </mxCell>
        <mxCell id="rGUAG8N3f3AiMSVupeu6-77" value="" style="edgeStyle=orthogonalEdgeStyle;rounded=0;orthogonalLoop=1;jettySize=auto;html=1;" edge="1" parent="1" source="rGUAG8N3f3AiMSVupeu6-73" target="rGUAG8N3f3AiMSVupeu6-67">
          <mxGeometry relative="1" as="geometry" />
        </mxCell>
        <mxCell id="rGUAG8N3f3AiMSVupeu6-73" value="draw_text()" style="text;html=1;strokeColor=none;fillColor=none;align=center;verticalAlign=middle;whiteSpace=wrap;rounded=0;" vertex="1" parent="1">
          <mxGeometry x="1170" y="230" width="60" height="30" as="geometry" />
        </mxCell>
        <mxCell id="rGUAG8N3f3AiMSVupeu6-78" style="edgeStyle=orthogonalEdgeStyle;rounded=0;orthogonalLoop=1;jettySize=auto;html=1;exitX=0.5;exitY=1;exitDx=0;exitDy=0;entryX=0.75;entryY=0;entryDx=0;entryDy=0;" edge="1" parent="1" source="rGUAG8N3f3AiMSVupeu6-74" target="rGUAG8N3f3AiMSVupeu6-67">
          <mxGeometry relative="1" as="geometry" />
        </mxCell>
        <mxCell id="rGUAG8N3f3AiMSVupeu6-74" value="draw_polygon()" style="text;html=1;strokeColor=none;fillColor=none;align=center;verticalAlign=middle;whiteSpace=wrap;rounded=0;" vertex="1" parent="1">
          <mxGeometry x="1250" y="190" width="60" height="30" as="geometry" />
        </mxCell>
        <mxCell id="rGUAG8N3f3AiMSVupeu6-76" value="" style="edgeStyle=orthogonalEdgeStyle;rounded=0;orthogonalLoop=1;jettySize=auto;html=1;" edge="1" parent="1" source="rGUAG8N3f3AiMSVupeu6-75" target="rGUAG8N3f3AiMSVupeu6-74">
          <mxGeometry relative="1" as="geometry" />
        </mxCell>
        <mxCell id="rGUAG8N3f3AiMSVupeu6-75" value="polygons()" style="text;html=1;strokeColor=none;fillColor=none;align=center;verticalAlign=middle;whiteSpace=wrap;rounded=0;" vertex="1" parent="1">
          <mxGeometry x="1250" y="90" width="60" height="30" as="geometry" />
        </mxCell>
        <mxCell id="rGUAG8N3f3AiMSVupeu6-84" value="" style="edgeStyle=orthogonalEdgeStyle;rounded=0;orthogonalLoop=1;jettySize=auto;html=1;" edge="1" parent="1" source="rGUAG8N3f3AiMSVupeu6-82" target="rGUAG8N3f3AiMSVupeu6-75">
          <mxGeometry relative="1" as="geometry" />
        </mxCell>
        <mxCell id="rGUAG8N3f3AiMSVupeu6-82" value="polyfun()" style="text;html=1;strokeColor=none;fillColor=none;align=center;verticalAlign=middle;whiteSpace=wrap;rounded=0;" vertex="1" parent="1">
          <mxGeometry x="1290" y="30" width="60" height="30" as="geometry" />
        </mxCell>
        <mxCell id="rGUAG8N3f3AiMSVupeu6-85" value="" style="edgeStyle=orthogonalEdgeStyle;rounded=0;orthogonalLoop=1;jettySize=auto;html=1;" edge="1" parent="1" source="rGUAG8N3f3AiMSVupeu6-83" target="rGUAG8N3f3AiMSVupeu6-75">
          <mxGeometry relative="1" as="geometry" />
        </mxCell>
        <mxCell id="rGUAG8N3f3AiMSVupeu6-83" value="circfun()" style="text;html=1;strokeColor=none;fillColor=none;align=center;verticalAlign=middle;whiteSpace=wrap;rounded=0;" vertex="1" parent="1">
          <mxGeometry x="1220" y="30" width="60" height="30" as="geometry" />
        </mxCell>
        <mxCell id="rGUAG8N3f3AiMSVupeu6-87" style="edgeStyle=orthogonalEdgeStyle;rounded=0;orthogonalLoop=1;jettySize=auto;html=1;exitX=0.75;exitY=1;exitDx=0;exitDy=0;entryX=0.25;entryY=0;entryDx=0;entryDy=0;" edge="1" parent="1" source="rGUAG8N3f3AiMSVupeu6-86" target="rGUAG8N3f3AiMSVupeu6-67">
          <mxGeometry relative="1" as="geometry" />
        </mxCell>
        <mxCell id="rGUAG8N3f3AiMSVupeu6-86" value="subregion()" style="text;html=1;strokeColor=none;fillColor=none;align=center;verticalAlign=middle;whiteSpace=wrap;rounded=0;" vertex="1" parent="1">
          <mxGeometry x="905" y="240" width="60" height="30" as="geometry" />
        </mxCell>
        <mxCell id="rGUAG8N3f3AiMSVupeu6-89" style="edgeStyle=orthogonalEdgeStyle;rounded=0;orthogonalLoop=1;jettySize=auto;html=1;exitX=0.75;exitY=1;exitDx=0;exitDy=0;entryX=0.5;entryY=0;entryDx=0;entryDy=0;" edge="1" parent="1" source="rGUAG8N3f3AiMSVupeu6-88" target="rGUAG8N3f3AiMSVupeu6-67">
          <mxGeometry relative="1" as="geometry" />
        </mxCell>
        <mxCell id="rGUAG8N3f3AiMSVupeu6-88" value="set_plot_area()" style="text;html=1;strokeColor=none;fillColor=none;align=center;verticalAlign=middle;whiteSpace=wrap;rounded=0;" vertex="1" parent="1">
          <mxGeometry x="1140" y="150" width="60" height="30" as="geometry" />
        </mxCell>
        <mxCell id="rGUAG8N3f3AiMSVupeu6-90" value="plot()" style="text;html=1;strokeColor=none;fillColor=none;align=center;verticalAlign=middle;whiteSpace=wrap;rounded=0;" vertex="1" parent="1">
          <mxGeometry x="1160" y="450" width="60" height="30" as="geometry" />
        </mxCell>
        <mxCell id="rGUAG8N3f3AiMSVupeu6-94" value="shrink()" style="text;html=1;strokeColor=none;fillColor=none;align=center;verticalAlign=middle;whiteSpace=wrap;rounded=0;" vertex="1" parent="1">
          <mxGeometry x="620" y="170" width="60" height="30" as="geometry" />
        </mxCell>
        <mxCell id="rGUAG8N3f3AiMSVupeu6-100" value="unrelated()" style="text;html=1;strokeColor=none;fillColor=none;align=center;verticalAlign=middle;whiteSpace=wrap;rounded=0;" vertex="1" parent="1">
          <mxGeometry x="720" y="560" width="60" height="30" as="geometry" />
        </mxCell>
        <mxCell id="rGUAG8N3f3AiMSVupeu6-101" value="useful_inds()" style="text;html=1;strokeColor=none;fillColor=none;align=center;verticalAlign=middle;whiteSpace=wrap;rounded=0;" vertex="1" parent="1">
          <mxGeometry x="770" y="430" width="90" height="30" as="geometry" />
        </mxCell>
      </root>
    </mxGraphModel>
  </diagram>
</mxfile>
